<?xml version="1.0" encoding="UTF-8"?> <svg xmlns="http://www.w3.org/2000/svg" xmlns:xlink="http://www.w3.org/1999/xlink" width="111" height="111" viewBox="0 0 111 111"><defs><clipPath id="clip-path"><path id="Path_85" data-name="Path 85" d="M48.367,10.518H0V-39.514H48.367Z" transform="translate(0 39.514)" fill="none"></path></clipPath></defs><g id="Increase_communication" data-name="Increase communication" transform="translate(-154 -1045)"><g id="Ellipse_4" data-name="Ellipse 4" transform="translate(154 1045)" fill="#fff" stroke="#000" stroke-width="8"><circle cx="55.5" cy="55.5" r="55.5" stroke="none"></circle><circle cx="55.5" cy="55.5" r="51.5" fill="none"></circle></g><g id="Group_107" data-name="Group 107" transform="translate(185.316 1075.484)"><g id="Group_64" data-name="Group 64" transform="translate(0 0)" clip-path="url(#clip-path)"><g id="Group_62" data-name="Group 62" transform="translate(18.741 0)"><path id="Path_83" data-name="Path 83" d="M-23.4,2.53c0,6.647,6.631,12.035,14.812,12.035a17.727,17.727,0,0,0,6.023-1.036A17.188,17.188,0,0,0,.578,15.3,12.233,12.233,0,0,0,5.3,16.416a.927.927,0,0,0,.66-1.579l-.016-.018c-.018-.018-.041-.041-.076-.081-.063-.07-.162-.18-.284-.33a11.1,11.1,0,0,1-.879-1.25A8.417,8.417,0,0,1,3.466,9.519,10.518,10.518,0,0,0,6.226,2.53C6.226-4.117-.4-9.505-8.586-9.505S-23.4-4.117-23.4,2.53" transform="translate(23.398 9.505)"></path></g><g id="Group_63" data-name="Group 63" transform="translate(0 24.11)"><path id="Path_84" data-name="Path 84" d="M29.626,2.53c0,6.647-6.631,12.035-14.812,12.035a17.727,17.727,0,0,1-6.023-1.036A17.189,17.189,0,0,1,5.65,15.3,12.233,12.233,0,0,1,.928,16.416a.927.927,0,0,1-.66-1.579l.016-.018c.018-.018.041-.041.076-.081.063-.07.162-.18.284-.33a11.1,11.1,0,0,0,.879-1.25A8.417,8.417,0,0,0,2.762,9.519,10.518,10.518,0,0,1,0,2.53C0-4.117,6.632-9.505,14.814-9.505S29.626-4.117,29.626,2.53" transform="translate(0 9.505)" fill="#f0c552"></path></g></g></g></g></svg> 