<?xml version="1.0" encoding="UTF-8"?> <svg xmlns="http://www.w3.org/2000/svg" xmlns:xlink="http://www.w3.org/1999/xlink" width="111" height="111" viewBox="0 0 111 111"><defs><clipPath id="clip-path"><path id="Path_111" data-name="Path 111" d="M0-17.492H52.309V-69.12H0Z" transform="translate(0 69.12)" fill="none"></path></clipPath></defs><g id="Develop_strong_leadership" data-name="Develop strong leadership" transform="translate(-154 -1197)"><g id="Ellipse_5" data-name="Ellipse 5" transform="translate(154 1197)" fill="#fff" stroke="#000" stroke-width="8"><circle cx="55.5" cy="55.5" r="55.5" stroke="none"></circle><circle cx="55.5" cy="55.5" r="51.5" fill="none"></circle></g><g id="Group_115" data-name="Group 115" transform="translate(183.346 1295.12)"><g id="Group_113" data-name="Group 113" transform="translate(0 -69.12)" clip-path="url(#clip-path)"><g id="Group_108" data-name="Group 108" transform="translate(7.266 8.853)"><path id="Path_106" data-name="Path 106" d="M0-1.845A5.5,5.5,0,0,0,5.551,3.6,5.5,5.5,0,0,0,11.1-1.845,5.5,5.5,0,0,0,5.551-7.292,5.5,5.5,0,0,0,0-1.845" transform="translate(0 7.292)"></path></g><g id="Group_109" data-name="Group 109" transform="translate(1.12 14.045)"><path id="Path_107" data-name="Path 107" d="M-2.395-2.476h7.27a1.963,1.963,0,0,0,1.132-.359L15.5-9.528a1.319,1.319,0,0,1,1.223-.179,1.326,1.326,0,0,1,.6.466l.018.025A1.386,1.386,0,0,1,17-7.288L6.173.464l.035,7.248h6.3a2.759,2.759,0,0,1,2.76,2.759v5.115a1.784,1.784,0,1,1-3.567,0V12.17a.452.452,0,0,0-.452-.452H2.476V24.2a1.784,1.784,0,0,1-3.567,0V1.622a.682.682,0,0,0-1.164-.483L-5.978,4.861a.773.773,0,0,0,0,1.094L-3.283,8.65a1.5,1.5,0,0,1,.457,1.045,1.038,1.038,0,0,1-.352.816.231.231,0,0,0-.025.029,1.34,1.34,0,0,1-1.989.021L-8.7,6.806a2.815,2.815,0,0,1-.085-3.751l4.941-4.931a2.054,2.054,0,0,1,1.453-.6" transform="translate(9.463 9.786)"></path></g><g id="Group_110" data-name="Group 110" transform="translate(1.12 14.045)"><path id="Path_108" data-name="Path 108" d="M-2.395-2.476h7.27a1.963,1.963,0,0,0,1.132-.359L15.5-9.528a1.319,1.319,0,0,1,1.223-.179,1.326,1.326,0,0,1,.6.466l.018.025A1.386,1.386,0,0,1,17-7.288L6.173.464l.035,7.248h6.3a2.759,2.759,0,0,1,2.76,2.759v5.115a1.784,1.784,0,1,1-3.567,0V12.17a.452.452,0,0,0-.452-.452H2.476V24.2a1.784,1.784,0,0,1-3.567,0V1.622a.682.682,0,0,0-1.164-.483L-5.978,4.861a.773.773,0,0,0,0,1.094L-3.283,8.65a1.5,1.5,0,0,1,.457,1.045,1.038,1.038,0,0,1-.352.816.231.231,0,0,0-.025.029,1.34,1.34,0,0,1-1.989.021L-8.7,6.806a2.815,2.815,0,0,1-.085-3.751l4.941-4.931A2.054,2.054,0,0,1-2.395-2.476Z" transform="translate(9.463 9.786)" fill="none" stroke="#000" stroke-width="3"></path></g><g id="Group_111" data-name="Group 111" transform="translate(38.579 0)"><path id="Path_109" data-name="Path 109" d="M-2.512-.114-.866,3.159A.612.612,0,0,0-.4,3.488l3.68.524a.6.6,0,0,1,.341,1.027L.953,7.586a.6.6,0,0,0-.176.533l.629,3.6a.612.612,0,0,1-.89.635l-3.292-1.7a.627.627,0,0,0-.571,0l-3.292,1.7a.611.611,0,0,1-.89-.635l.628-3.6a.6.6,0,0,0-.176-.533L-9.741,5.039A.6.6,0,0,1-9.4,4.012l3.68-.524a.613.613,0,0,0,.462-.329L-3.613-.114a.619.619,0,0,1,1.1,0" transform="translate(9.927 0.449)" fill="#f0c552"></path></g><g id="Group_112" data-name="Group 112" transform="translate(18.49 42.309)"><path id="Path_110" data-name="Path 110" d="M-5.875-3.157h-16.3a1.031,1.031,0,0,1-1.04-1.02v-7.278a1.031,1.031,0,0,1,1.04-1.02h16.3a1.031,1.031,0,0,1,1.04,1.02v7.278a1.031,1.031,0,0,1-1.04,1.02" transform="translate(23.214 12.476)" fill="#f0c552"></path></g></g><g id="Group_114" data-name="Group 114" transform="translate(31.852 -58.504)"><path id="Path_112" data-name="Path 112" d="M-2.144,0-6.113,2.572M-1.775,2.5l-6.7,4.578" transform="translate(8.473)" fill="none" stroke="#000" stroke-linecap="round" stroke-width="2"></path></g></g></g></svg> 