<?xml version="1.0" encoding="UTF-8"?> <svg xmlns="http://www.w3.org/2000/svg" xmlns:xlink="http://www.w3.org/1999/xlink" width="111" height="111" viewBox="0 0 111 111"><defs><clipPath id="clip-path"><path id="Path_130" data-name="Path 130" d="M0,30.55H51.321V-21.429H0Z" transform="translate(0 21.429)" fill="none"></path></clipPath></defs><g id="Address_personal_development" data-name="Address personal development" transform="translate(-703 -1045)"><g id="Ellipse_8" data-name="Ellipse 8" transform="translate(703 1045)" fill="#fff" stroke="#000" stroke-width="8"><circle cx="55.5" cy="55.5" r="55.5" stroke="none"></circle><circle cx="55.5" cy="55.5" r="51.5" fill="none"></circle></g><g id="Group_136" data-name="Group 136" transform="translate(732.84 1094.966)"><g id="Group_135" data-name="Group 135" transform="translate(0 -21.429)" clip-path="url(#clip-path)"><g id="Group_126" data-name="Group 126" transform="translate(13.649 39.936)"><path id="Path_121" data-name="Path 121" d="M7,7.067H-2.894A1.765,1.765,0,0,1-4.91,5.037,10.136,10.136,0,0,1,3.772-4.719a21.452,21.452,0,0,1,7.384.165,10.2,10.2,0,0,1,7.777,9.843,1.72,1.72,0,0,1-1.8,1.776c-1.477.012-2.954,0-4.429,0Z" transform="translate(4.91 4.957)" fill="#f0c552"></path></g><g id="Group_127" data-name="Group 127" transform="translate(3.431 24.698)"><path id="Path_122" data-name="Path 122" d="M4,8.009A6.816,6.816,0,0,1-2.8,1.125,6.831,6.831,0,0,1,4.059-5.618a6.841,6.841,0,0,1,6.765,6.806A6.829,6.829,0,0,1,4,8.009" transform="translate(2.803 5.618)" fill="#f0c552"></path></g><g id="Group_128" data-name="Group 128" transform="translate(18.757 24.697)"><path id="Path_123" data-name="Path 123" d="M0,3.989a6.814,6.814,0,1,1,6.8,6.843A6.835,6.835,0,0,1,0,3.989" transform="translate(0 2.798)" fill="#f0c552"></path></g><g id="Group_129" data-name="Group 129" transform="translate(0.001 40.013)"><path id="Path_124" data-name="Path 124" d="M8.331.377A13.27,13.27,0,0,0,4.578,11.682H4.21c-2.593,0-5.188-.041-7.781.017a1.965,1.965,0,0,1-2.27-2.3A9.515,9.515,0,0,1-1.386,1.218,8.7,8.7,0,0,1,2.961-.208a13.264,13.264,0,0,1,4.977.4c.112.039.226.075.337.116.022.01.034.039.056.065" transform="translate(5.844 0.264)" fill="#f0c552"></path></g><g id="Group_130" data-name="Group 130" transform="translate(34.264 24.698)"><path id="Path_125" data-name="Path 125" d="M4.013,8.009a6.816,6.816,0,0,0,6.8-6.884A6.831,6.831,0,0,0,3.95-5.618,6.841,6.841,0,0,0-2.815,1.188,6.829,6.829,0,0,0,4.013,8.009" transform="translate(2.815 5.618)" fill="#f0c552"></path></g><g id="Group_131" data-name="Group 131" transform="translate(37.147 40.013)"><path id="Path_126" data-name="Path 126" d="M0,.377A13.27,13.27,0,0,1,3.752,11.682h.369c2.593,0,5.188-.041,7.781.017a1.965,1.965,0,0,0,2.27-2.3A9.515,9.515,0,0,0,9.717,1.218,8.7,8.7,0,0,0,5.37-.208a13.26,13.26,0,0,0-4.977.4C.281.234.167.27.056.311.034.321.022.35,0,.377" transform="translate(0 0.264)" fill="#f0c552"></path></g><g id="Group_132" data-name="Group 132" transform="translate(4.564 0)"><path id="Path_127" data-name="Path 127" d="M6.438,2.951,2.315-1.6a1.56,1.56,0,0,0-2.234,0l-4.126,4.55A1.446,1.446,0,0,0-4.035,5.1,1.515,1.515,0,0,0-1.894,5L-.361,3.325v14.3a1.515,1.515,0,1,0,3.03,0V3.325L4.2,5a1.516,1.516,0,1,0,2.234-2.05" transform="translate(4.516 2.07)" fill="#0c0c0c"></path></g><g id="Group_133" data-name="Group 133" transform="translate(20.019 0)"><path id="Path_128" data-name="Path 128" d="M6.438,2.951,2.315-1.6a1.56,1.56,0,0,0-2.234,0l-4.126,4.55A1.446,1.446,0,0,0-4.035,5.1,1.515,1.515,0,0,0-1.894,5L-.361,3.325v14.3a1.515,1.515,0,1,0,3.03,0V3.325L4.2,5a1.516,1.516,0,1,0,2.234-2.05" transform="translate(4.516 2.07)" fill="#0c0c0c"></path></g><g id="Group_134" data-name="Group 134" transform="translate(35.475 0)"><path id="Path_129" data-name="Path 129" d="M6.438,2.951,2.315-1.6a1.56,1.56,0,0,0-2.234,0l-4.126,4.55A1.446,1.446,0,0,0-4.035,5.1,1.515,1.515,0,0,0-1.894,5L-.361,3.325v14.3a1.515,1.515,0,1,0,3.03,0V3.325L4.2,5a1.516,1.516,0,1,0,2.234-2.05" transform="translate(4.516 2.07)" fill="#0c0c0c"></path></g></g></g></g></svg> 