<?xml version="1.0" encoding="UTF-8"?> <svg xmlns="http://www.w3.org/2000/svg" xmlns:xlink="http://www.w3.org/1999/xlink" width="111" height="111" viewBox="0 0 111 111"><defs><clipPath id="clip-path"><path id="Path_139" data-name="Path 139" d="M0,15.311H51.9v-40.4H0Z" transform="translate(0 25.091)" fill="none"></path></clipPath></defs><g id="Create_a_culture" data-name="Create a culture" transform="translate(-703 -1501)"><g id="Ellipse_11" data-name="Ellipse 11" transform="translate(703 1501)" fill="#fff" stroke="#000" stroke-width="8"><circle cx="55.5" cy="55.5" r="55.5" stroke="none"></circle><circle cx="55.5" cy="55.5" r="51.5" fill="none"></circle></g><g id="Group_147" data-name="Group 147" transform="translate(732.84 1560.874)"><g id="Group_146" data-name="Group 146" transform="translate(0 -25.091)" clip-path="url(#clip-path)"><g id="Group_143" data-name="Group 143" transform="translate(0 5.061)"><path id="Path_136" data-name="Path 136" d="M0,4.6c0-2.982-.013-5.966,0-8.948A3.173,3.173,0,0,1,3.931-7.469,3.17,3.17,0,0,1,6.436-4.385c.008,4.124,0,8.246.006,12.368a8.264,8.264,0,0,0,.055.892,4.534,4.534,0,0,0,1.333,2.811q2.118,2.1,4.278,4.172a2.1,2.1,0,0,0,2.544.287,1.787,1.787,0,0,0,.853-2.084,3.233,3.233,0,0,0-.731-1.082c-1.151-1.161-2.338-2.288-3.509-3.433A2.528,2.528,0,0,1,10.515,6.8,2.623,2.623,0,0,1,14.78,5.78c2.109,2.014,4.188,4.064,6.214,6.158a8.267,8.267,0,0,1,2.327,5.95c0,1.964,0,3.929,0,5.9A3.74,3.74,0,0,1,19.5,27.771c-2.068.079-4.143,0-6.214-.066a4.242,4.242,0,0,1-2.811-1.319c-2.691-2.592-5.354-5.211-8.035-7.813A7.624,7.624,0,0,1,0,12.862C.008,10.107,0,7.353,0,4.6" transform="translate(0.003 7.535)"></path></g><g id="Group_144" data-name="Group 144" transform="translate(28.552 5.021)"><path id="Path_137" data-name="Path 137" d="M8.845,4.571c0,2.791-.013,5.579,0,8.37a7.587,7.587,0,0,1-2.43,5.713c-2.679,2.6-5.349,5.219-8.033,7.818a5.112,5.112,0,0,1-3.673,1.409c-1.713.008-3.427.018-5.14,0a3.784,3.784,0,0,1-4.029-3.749c-.061-2.192-.048-4.388.008-6.579a8.379,8.379,0,0,1,2.591-5.85C-9.92,9.761-7.977,7.832-6,5.93A2.629,2.629,0,0,1-1.642,6.943,2.492,2.492,0,0,1-2.378,9.6c-1.2,1.163-2.417,2.312-3.628,3.467a1.911,1.911,0,0,0-.06,2.968,2.077,2.077,0,0,0,2.76-.043q2.249-2.13,4.428-4.327A4.777,4.777,0,0,0,2.411,8.131C2.4,4.043,2.422-.045,2.4-4.134A3.141,3.141,0,0,1,3.841-6.919a3.021,3.021,0,0,1,3.177-.224A2.933,2.933,0,0,1,8.84-4.43c.013,3,0,6,0,9" transform="translate(14.495 7.491)"></path></g><g id="Group_145" data-name="Group 145" transform="translate(14.598 0)"><path id="Path_138" data-name="Path 138" d="M4.253.906A20.317,20.317,0,0,1,6.868-.9a6.147,6.147,0,0,1,8.824,4.935,5.834,5.834,0,0,1-1.911,4.945Q9.742,12.87,5.707,16.763a1.658,1.658,0,0,1-2.629.013Q-.983,12.87-5.033,8.957A6,6,0,0,1-5.386.484a6.1,6.1,0,0,1,5.1-1.937A5.987,5.987,0,0,1,4.1.735a2.577,2.577,0,0,0,.187.188c.026.024.061.037-.034-.018" transform="translate(6.97 1.484)" fill="#f0c552"></path></g></g></g></g></svg> 