<?xml version="1.0" encoding="iso-8859-1"?><!-- Generator: Adobe Illustrator 20.1.0, SVG Export Plug-In . SVG Version: 6.00 Build 0)  --><svg xmlns="http://www.w3.org/2000/svg" xmlns:xlink="http://www.w3.org/1999/xlink" viewBox="0 0 50 50" width="100px" height="100px"><g><path d="M38.481,26.793h3.289v2.767h-6.593v-9.464h3.304V26.793z M27.708,26.271l-5.432,4.272l-4.966-3.905c-0.716,1.721-2.441,2.921-4.44,2.921H8.626v-9.463h4.244c2.23,0,3.834,1.41,4.437,2.921l4.969-3.905l1.842,1.448l-4.55,3.578l0.872,0.685l4.551-3.578l1.84,1.446l-4.551,3.579l0.874,0.686l4.555-3.577v-3.285h3.304v6.695h3.289v2.769h-6.593V26.271z M14.591,24.827c0-1.287-0.85-2.013-2.051-2.013h-0.737v4.026h0.718C13.637,26.84,14.591,26.229,14.591,24.827"/></g><circle style="fill:none;stroke:#000000;stroke-width:2;stroke-linecap:round;stroke-linejoin:round;stroke-miterlimit:10;" cx="25" cy="25" r="22"/></svg>