<?xml version="1.0" encoding="iso-8859-1"?><!-- Generator: Adobe Illustrator 20.0.0, SVG Export Plug-In . SVG Version: 6.00 Build 0)  --><svg xmlns="http://www.w3.org/2000/svg" xmlns:xlink="http://www.w3.org/1999/xlink" viewBox="0 0 50 50" width="100px" height="100px"><path d="M0,14.006h9.734v1.371H0V14.006L0,14.006z M21.59,14.006H11.129v1.371h13.945l-0.218-0.208l-0.282-0.203l-0.292-0.203l-0.322-0.168l-0.317-0.153l-0.317-0.129l-0.346-0.114l-0.346-0.074l-0.341-0.064l-0.341-0.054H21.59L21.59,14.006z M27.816,14.006v1.371h8.398l-0.485-1.371H27.816L27.816,14.006z M42.161,14.006l-0.485,1.371H50v-1.371H42.161L42.161,14.006z M0,16.674v1.351h9.734v-1.351H0L0,16.674z M2.781,19.316v1.381h4.162v-1.381H2.781L2.781,19.316z M2.781,21.969v1.381h4.162v-1.381H2.781L2.781,21.969z M26.059,16.674h-14.93v1.351h15.449l-0.163-0.544l-0.129-0.356l-0.153-0.322L26.059,16.674L26.059,16.674z M13.91,19.316v1.381h4.157v-1.381H13.91L13.91,19.316z M26.707,19.316h-4.454v1.381h4.226l0.04-0.119l0.084-0.341l0.054-0.346l0.04-0.356L26.707,19.316L26.707,19.316z M25.891,21.969H13.91v1.381h10.664l0.233-0.153l0.267-0.233l0.242-0.252l0.228-0.267l0.218-0.282L25.891,21.969L25.891,21.969z M27.816,16.674v1.351h9.328l-0.485-1.351H27.816L27.816,16.674z M50,16.674h-8.774l-0.47,1.351H50V16.674L50,16.674z M30.602,19.316v1.381h7.462l-0.485-1.381H30.602L30.602,19.316z M47.288,19.316h-6.992l-0.475,1.381h7.467V19.316L47.288,19.316z M35.209,23.349h7.487l0.421-1.227v1.227h4.172v-1.381H39.38l-0.435,1.227l-0.435-1.227h-7.908v1.381h4.172v-1.237L35.209,23.349L35.209,23.349z M0,32.603v1.39h9.734v-1.39H0L0,32.603z M0,29.931v1.391h9.734v-1.391H0L0,29.931z M2.781,24.636v1.366h4.162v-1.366H2.781L2.781,24.636z M2.781,27.288v1.381h4.162v-1.381H2.781L2.781,27.288z M24.574,24.636H13.91v1.366h11.98l-0.129-0.163l-0.218-0.282l-0.228-0.267l-0.242-0.257l-0.267-0.228L24.574,24.636L24.574,24.636z M13.91,27.288v1.381h4.157v-1.381H13.91L13.91,27.288z M26.48,27.288h-4.226v1.381h4.454l-0.01-0.208l-0.04-0.356l-0.054-0.341l-0.084-0.341L26.48,27.288L26.48,27.288z M26.579,29.931H11.129v1.391h14.93l0.074-0.124l0.153-0.322l0.129-0.332l0.104-0.332L26.579,29.931L26.579,29.931z M25.074,32.603H11.129v1.39h10.412l0.356-0.015l0.356-0.04l0.332-0.064l0.346-0.074l0.346-0.119l0.317-0.124l0.322-0.153l0.317-0.168l0.292-0.193l0.282-0.218L25.074,32.603L25.074,32.603z M30.602,24.636v1.366h4.172v-1.366H30.602L30.602,24.636z M41.766,26.002l0.48-1.366h-6.606l0.47,1.366H41.766L41.766,26.002z M43.117,24.636v1.366h4.172v-1.366H43.117L43.117,24.636z M30.602,27.288v1.381h4.172v-1.381H30.602L30.602,27.288z M41.345,27.288h-4.8l0.475,1.381h3.85L41.345,27.288L41.345,27.288z M43.117,27.288v1.381h4.172v-1.381H43.117L43.117,27.288z M27.816,29.931v1.391h6.958v-1.391H27.816L27.816,29.931z M40.435,29.931H37.45l0.475,1.391h2.039L40.435,29.931L40.435,29.931z M43.117,29.931v1.391H50v-1.391H43.117L43.117,29.931z M27.816,32.603v1.39h6.958v-1.39H27.816L27.816,32.603z M43.117,32.603v1.39H50v-1.39H43.117L43.117,32.603z M39.044,33.994l0.475-1.39h-1.148l0.47,1.39H39.044L39.044,33.994z"/></svg>